Coordinates
version=1
nRows=30
nColumns=19
inDegrees=yes

Units are S.I. units (second, meters, Newtons, ...)
If the header above contains a line with 'inDegrees', this indicates whether rotational values are in degrees (yes) or radians (no).

endheader
time	pelvis_tilt	pelvis_list	pelvis_rotation	pelvis_tx	pelvis_ty	pelvis_tz	hip_flexion_r	hip_adduction_r	hip_rotation_r	knee_angle_r	knee_angle_r_beta	ankle_angle_r	hip_flexion_l	hip_adduction_l	hip_rotation_l	knee_angle_l	knee_angle_l_beta	ankle_angle_l
     16.64000000	    -10.38831786	      5.97381199	      2.92446956	      2.17106024	      0.95066449	      0.96377917	    -11.02987618	     -9.19727103	    -12.79331309	     34.75716374	      0.60662695	    -13.79465405	     30.50556189	      9.48360567	    -11.06883080	     13.21631125	      0.23066815	      9.09941922
     16.64666667	     -9.89007963	      6.52237563	      2.92856450	      2.17163505	      0.94700514	      0.96342301	    -10.94866977	    -10.16276983	    -12.76138830	     37.51499273	      0.65476014	    -13.44767296	     30.30686894	      9.88622945	    -11.88824758	     15.12140878	      0.26391837	      8.94100989
     16.65333333	     -9.74372079	      6.98658600	      2.81775818	      2.17201347	      0.94259555	      0.96319585	    -10.26865045	    -11.09623843	    -12.45115124	     40.51568193	      0.70713205	    -13.04614230	     30.61927046	     10.07337894	    -12.80704219	     17.48902326	      0.30524104	      8.74882415
     16.66000000	     -8.93772931	      7.67991268	      2.87313677	      2.17255836	      0.93864967	      0.96297070	    -10.41016387	    -12.21841796	    -12.58090947	     43.39214683	      0.75733583	    -12.64469479	     30.14531776	     10.56284428	    -13.41609836	     19.91122316	      0.34751640	      8.58609526
     16.66666667	     -8.23106229	      8.33424088	      2.81893803	      2.17290939	      0.93436767	      0.96285064	    -10.27118393	    -13.36029620	    -12.56681496	     46.42468186	      0.81026355	    -12.19657939	     29.82826394	     10.93321671	    -14.02696352	     22.52388866	      0.39311602	      8.56226302
     16.67333333	     -8.01718037	      8.87313495	      2.65580858	      2.17302962	      0.92945333	      0.96281348	     -9.34859616	    -14.41347968	    -12.15786700	     49.64302595	      0.86643425	    -11.63391237	     30.11298976	     11.11036478	    -14.65847133	     25.34413398	      0.44233858	      8.74168071
     16.68000000	     -7.16977096	      9.53936920	      2.69939211	      2.17316078	      0.92519577	      0.96262746	     -9.23808195	    -15.56155684	    -12.22397291	     52.67837394	      0.91941107	    -11.04052900	     29.61524259	     11.57153820	    -14.86932234	     28.05311185	      0.48961917	      9.22210789
     16.68666667	     -6.75572848	     10.09871555	      2.57036717	      2.17294703	      0.92056493	      0.96258711	     -8.35849554	    -16.61326479	    -11.78335979	     55.88578261	      0.97539091	    -10.31394914	     29.60499354	     11.84701980	    -15.15395697	     30.78429352	      0.53728728	      9.96673292
     16.69333333	     -6.18081932	     10.60887915	      2.57179039	      2.17255239	      0.91626953	      0.96238556	     -7.63413963	    -17.57428299	    -11.46774239	     58.99867652	      1.02972116	     -9.49308410	     29.34460003	     12.19287155	    -15.15458555	     33.40631995	      0.58305027	     11.03749738
     16.70000000	     -5.30573989	     11.09899538	      2.67023545	      2.17200229	      0.91258195	      0.96207472	     -7.24098047	    -18.47129139	    -11.29552144	     61.95985873	      1.08140354	     -8.59757422	     28.63377871	     12.64295159	    -14.88700050	     35.82183087	      0.62520889	     12.41785652
     16.70666667	     -5.16072608	     11.38070889	      2.54231362	      2.17100267	      0.90842995	      0.96197342	     -5.62958758	    -19.09243271	    -10.33180345	     65.10046975	      1.13621754	     -7.53445386	     28.68500066	     12.77315690	    -14.84089852	     38.13219382	      0.66553233	     13.88235963
     16.71333333	     -4.85576258	     11.53593872	      2.56571138	      2.16980382	      0.90488671	      0.96167581	     -4.19353284	    -19.50491164	     -9.51482112	     68.05056018	      1.18770633	     -6.43657410	     28.40176438	     12.92496130	    -14.48738864	     40.18763313	      0.70140652	     15.52974838
     16.72000000	     -4.53418198	     11.62094998	      2.50026860	      2.16837964	      0.90181845	      0.96151699	     -2.62348487	    -19.75122267	     -8.48328388	     70.88408339	      1.23716064	     -5.25296756	     27.93901464	     13.00869988	    -14.16889872	     41.92902279	      0.73179950	     17.21235514
     16.72666667	     -3.93812500	     11.64020579	      2.54462614	      2.16697983	      0.89956773	      0.96125826	     -1.41429789	    -19.86308128	     -7.64782124	     73.44088454	      1.28178524	     -4.05211846	     26.96135371	     13.14385338	    -13.63006580	     43.34454934	      0.75650510	     18.92893898
     16.73333333	     -4.20600298	     11.37456581	      2.32936561	      2.16517498	      0.89688884	      0.96127038	      1.16235069	    -19.53353021	     -6.06442372	     76.07095895	      1.32768870	     -2.88405539	     26.84761474	     12.84065901	    -13.42690847	     44.57432080	      0.77796866	     20.48056773
     16.74000000	     -4.15322317	     11.09186073	      2.18722154	      2.16344008	      0.89511413	      0.96125318	      3.28683078	    -19.11354838	     -4.73607951	     78.36738610	      1.36776891	     -1.70784165	     26.16410615	     12.60726248	    -13.07530381	     45.44142359	      0.79310246	     21.92000010
     16.74666667	     -4.11469808	     10.73886378	      2.03198246	      2.16173753	      0.89389060	      0.96130226	      5.43137280	    -18.54800855	     -3.44857148	     80.41240782	      1.40346128	     -0.59213510	     25.31559955	     12.30844614	    -12.74053134	     45.99944842	      0.80284183	     23.18955189
     16.75333333	     -4.17759379	     10.32776310	      1.89484879	      2.16010748	      0.89311522	      0.96135122	      7.66157139	    -17.87407252	     -2.25006281	     82.19117157	      1.43450656	      0.47179503	     24.41771518	     11.97829347	    -12.37709554	     46.28375076	      0.80780384	     24.24702566
     16.76000000	     -4.23454908	      9.88649583	      1.79438373	      2.15858698	      0.89290186	      0.96139227	      9.81849404	    -17.15392689	     -1.22376718	     83.67709255	      1.46044077	      1.47898324	     23.35666217	     11.63465610	    -11.99638622	     46.29495684	      0.80799942	     25.09488637
     16.76666667	     -4.01293711	      9.46789389	      2.00621298	      2.15724037	      0.89363355	      0.96106553	     11.41829967	    -16.59195562	     -0.80468488	     84.75656212	      1.47928107	      2.35244607	     21.82535045	     11.48426597	    -11.20621583	     46.03962280	      0.80354300	     25.62638620
     16.77333333	     -3.95625612	      8.98934588	      2.12019128	      2.15613939	      0.89474878	      0.96092859	     13.17420089	    -15.90079367	     -0.32921520	     85.55165932	      1.49315814	      3.27473051	     20.33915370	     11.20666396	    -10.54400695	     45.52784707	      0.79461083	     26.07391437
     16.78000000	     -4.03227685	      8.46333342	      2.21203622	      2.15521819	      0.89627732	      0.96082853	     15.02769366	    -15.19429493	      0.02618235	     86.04802534	      1.50182136	      4.07183321	     18.90731599	     10.80810232	    -10.03232748	     44.84786357	      0.78274288	     26.28346263
     16.78666667	     -4.17704049	      7.90436663	      2.31558099	      2.15440231	      0.89824789	      0.96073055	     16.88369623	    -14.51726809	      0.19797410	     86.25318889	      1.50540214	      4.75315040	     17.49608504	     10.35436302	     -9.53445782	     44.04426149	      0.76871738	     26.23055651
     16.79333333	     -4.38900536	      7.34104456	      2.43933278	      2.15373113	      0.90063867	      0.96065166	     18.71889318	    -13.85690403	      0.23844480	     86.16330615	      1.50383339	      5.38030560	     16.09316001	      9.87854835	     -9.04193582	     43.09001295	      0.75206260	     25.99819779
     16.80000000	     -4.66214917	      6.75058832	      2.59849509	      2.15319779	      0.90343943	      0.96054005	     20.51021348	    -13.21811833	      0.10398286	     85.77137035	      1.49699282	      5.94562429	     14.70929330	      9.35486657	     -8.55348893	     42.01402724	      0.73328311	     25.54848321
     16.80666667	     -4.93729854	      6.12301139	      2.75794494	      2.15276648	      0.90672358	      0.96046707	     22.19845405	    -12.52835102	     -0.12119453	     85.07733918	      1.48487969	      6.44295326	     13.28572175	      8.79854827	     -7.97648674	     40.80130761	      0.71211716	     24.83657184
     16.81333333	     -4.64111370	      5.43009206	      3.03754320	      2.15277143	      0.91117020	      0.96019768	     22.98070670	    -11.95098537	     -0.83887627	     83.92510055	      1.46476933	      6.93031535	     11.13423949	      8.13440981	     -7.30920192	     39.37112089	      0.68715569	     23.91641686
     16.82000000	     -4.72072241	      4.67142406	      3.34882639	      2.15285435	      0.91546564	      0.95983362	     24.08982413	    -11.35952322	     -1.65798326	     82.54897139	      1.44075134	      7.37591436	      9.42661394	      7.38342671	     -6.66811423	     37.94448075	      0.66225612	     22.77041287
     16.82666667	     -5.23382297	      3.97756713	      3.53226394	      2.15287535	      0.91944381	      0.95973079	     25.68485616	    -10.77264939	     -2.32144327	     81.02948654	      1.41423133	      7.78152516	      8.23352796	      6.66136945	     -6.24483136	     36.51079099	      0.63723352	     21.36502768
     16.83333333	     -5.44621966	      3.15690672	      3.75750546	      2.15323213	      0.92403061	      0.95945657	     26.73360142	    -10.17760653	     -3.33607755	     79.14416442	      1.38132625	      8.10215757	      6.69083665	      5.75776004	     -5.84260643	     34.98381219	      0.61058271	     19.75565519
